<svg width="24" height="25" viewBox="0 0 24 25" fill="none" xmlns="http://www.w3.org/2000/svg">
<g opacity="0.8">
<path d="M12 22.9167C17.5228 22.9167 22 18.253 22 12.5C22 6.74704 17.5228 2.08334 12 2.08334C6.47715 2.08334 2 6.74704 2 12.5C2 18.253 6.47715 22.9167 12 22.9167Z" stroke="#F3F1D3" stroke-width="1.5" stroke-linecap="round" stroke-linejoin="round"/>
<path d="M12 16.6667C14.2091 16.6667 16 14.8012 16 12.5C16 10.1988 14.2091 8.33334 12 8.33334C9.79086 8.33334 8 10.1988 8 12.5C8 14.8012 9.79086 16.6667 12 16.6667Z" stroke="#F3F1D3" stroke-width="1.5" stroke-linecap="round" stroke-linejoin="round"/>
<path d="M21.17 8.33334H12" stroke="#F3F1D3" stroke-width="1.5" stroke-linecap="round" stroke-linejoin="round"/>
<path d="M3.9502 6.3125L8.5402 14.5833" stroke="#F3F1D3" stroke-width="1.5" stroke-linecap="round" stroke-linejoin="round"/>
<path d="M10.8799 22.8542L15.4599 14.5833" stroke="#F3F1D3" stroke-width="1.5" stroke-linecap="round" stroke-linejoin="round"/>
</g>
</svg>
