<svg width="24" height="25" viewBox="0 0 24 25" fill="none" xmlns="http://www.w3.org/2000/svg">
<g opacity="0.8">
<path d="M16 8.33334C17.5913 8.33334 19.1174 8.99182 20.2426 10.1639C21.3679 11.336 22 12.9257 22 14.5833V21.875H18V14.5833C18 14.0308 17.7893 13.5009 17.4142 13.1102C17.0391 12.7195 16.5304 12.5 16 12.5C15.4696 12.5 14.9609 12.7195 14.5858 13.1102C14.2107 13.5009 14 14.0308 14 14.5833V21.875H10V14.5833C10 12.9257 10.6321 11.336 11.7574 10.1639C12.8826 8.99182 14.4087 8.33334 16 8.33334V8.33334Z" stroke="#F3F1D3" stroke-width="1.5" stroke-linecap="round" stroke-linejoin="round"/>
<path d="M6 9.375H2V21.875H6V9.375Z" stroke="#F3F1D3" stroke-width="1.5" stroke-linecap="round" stroke-linejoin="round"/>
<path d="M4 6.25001C5.10457 6.25001 6 5.31727 6 4.16668C6 3.01608 5.10457 2.08334 4 2.08334C2.89543 2.08334 2 3.01608 2 4.16668C2 5.31727 2.89543 6.25001 4 6.25001Z" stroke="#F3F1D3" stroke-width="1.5" stroke-linecap="round" stroke-linejoin="round"/>
</g>
</svg>
